# This file uses centimeters as units for non-parametric coordinates.

mtllib Floor.mtl
g default
v -22.908545 8.885458 3.965355
v -28.118744 8.885459 3.965355
v -28.118744 8.885460 -3.944440
v -22.908545 8.885459 -3.944440
v -27.964386 8.820869 3.810997
v -27.971878 8.877962 3.818494
v -27.989979 8.885458 3.836592
v -23.062904 8.820869 3.810997
v -23.055408 8.877962 3.818494
v -23.037310 8.885458 3.836592
v -27.964386 8.820869 -3.790083
v -27.971878 8.877962 -3.797579
v -27.989979 8.885458 -3.815677
v -23.062904 8.820869 -3.790083
v -23.055408 8.877962 -3.797579
v -23.037310 8.885458 -3.815677
v -22.908545 8.612139 3.965355
v -28.118744 8.612139 3.965355
v -28.118744 8.612138 -3.944440
v -22.908545 8.612139 -3.944440
v -27.964386 8.676728 3.810997
v -27.971878 8.619635 3.818494
v -27.989979 8.612139 3.836592
v -23.062904 8.676728 3.810997
v -23.055408 8.619635 3.818494
v -23.037310 8.612139 3.836592
v -27.964386 8.676728 -3.790083
v -27.971878 8.619635 -3.797579
v -27.989979 8.612139 -3.815677
v -23.062904 8.676728 -3.790083
v -23.055408 8.619635 -3.797579
v -23.037310 8.612139 -3.815677
v -27.983170 8.638294 -2.976571
v -27.983170 8.647827 -2.967038
v -23.017380 8.647827 -2.967038
v -23.017380 8.638294 -2.976571
v -27.983170 8.724102 -2.967038
v -27.983170 8.733635 -2.976571
v -23.017380 8.733635 -2.976571
v -23.017380 8.724102 -2.967038
v -27.983170 8.733635 -3.178286
v -27.983170 8.724102 -3.187819
v -23.017380 8.724102 -3.187819
v -23.017380 8.733635 -3.178286
v -27.983170 8.647827 -3.187819
v -27.983170 8.638294 -3.178286
v -23.017380 8.638294 -3.178286
v -23.017380 8.647827 -3.187819
v -27.983170 8.638294 -1.432628
v -27.983170 8.647827 -1.423095
v -23.017380 8.647827 -1.423095
v -23.017380 8.638294 -1.432628
v -27.983170 8.724102 -1.423095
v -27.983170 8.733635 -1.432628
v -23.017380 8.733635 -1.432628
v -23.017380 8.724102 -1.423095
v -27.983170 8.733635 -1.634343
v -27.983170 8.724102 -1.643876
v -23.017380 8.724102 -1.643876
v -23.017380 8.733635 -1.634343
v -27.983170 8.647827 -1.643876
v -27.983170 8.638294 -1.634343
v -23.017380 8.638294 -1.634343
v -23.017380 8.647827 -1.643876
v -27.983170 8.638294 0.111315
v -27.983170 8.647827 0.120848
v -23.017380 8.647827 0.120848
v -23.017380 8.638294 0.111315
v -27.983170 8.724102 0.120848
v -27.983170 8.733635 0.111315
v -23.017380 8.733635 0.111315
v -23.017380 8.724102 0.120848
v -27.983170 8.733635 -0.090400
v -27.983170 8.724102 -0.099933
v -23.017380 8.724102 -0.099933
v -23.017380 8.733635 -0.090400
v -27.983170 8.647827 -0.099933
v -27.983170 8.638294 -0.090400
v -23.017380 8.638294 -0.090400
v -23.017380 8.647827 -0.099933
v -27.983170 8.638294 1.655258
v -27.983170 8.647827 1.664791
v -23.017380 8.647827 1.664791
v -23.017380 8.638294 1.655258
v -27.983170 8.724102 1.664791
v -27.983170 8.733635 1.655258
v -23.017380 8.733635 1.655258
v -23.017380 8.724102 1.664791
v -27.983170 8.733635 1.453543
v -27.983170 8.724102 1.444009
v -23.017380 8.724102 1.444009
v -23.017380 8.733635 1.453543
v -27.983170 8.647827 1.444009
v -27.983170 8.638294 1.453543
v -23.017380 8.638294 1.453543
v -23.017380 8.647827 1.444009
v -27.983170 8.638294 3.199201
v -27.983170 8.647827 3.208734
v -23.017380 8.647827 3.208734
v -23.017380 8.638294 3.199201
v -27.983170 8.724102 3.208734
v -27.983170 8.733635 3.199201
v -23.017380 8.733635 3.199201
v -23.017380 8.724102 3.208734
v -27.983170 8.733635 2.997486
v -27.983170 8.724102 2.987952
v -23.017380 8.724102 2.987952
v -23.017380 8.733635 2.997486
v -27.983170 8.647827 2.987952
v -27.983170 8.638294 2.997486
v -23.017380 8.638294 2.997486
v -23.017380 8.647827 2.987952
v -25.660057 8.527582 -3.976130
v -25.672176 8.539243 -3.976130
v -25.672176 8.539243 4.067849
v -25.660057 8.527582 4.067849
v -25.672176 8.632543 -3.976130
v -25.660057 8.644203 -3.976130
v -25.660057 8.644203 4.067849
v -25.672176 8.632543 4.067849
v -25.403601 8.644203 -3.976130
v -25.391479 8.632543 -3.976130
v -25.391479 8.632543 4.067849
v -25.403601 8.644203 4.067849
v -25.391479 8.539243 -3.976130
v -25.403601 8.527582 -3.976130
v -25.403601 8.527582 4.067849
v -25.391479 8.539243 4.067849
vt 0.272938 0.491324
vt 0.164828 0.021708
vt 0.259362 0.025441
vt 0.189302 0.035282
vt 0.279047 0.028219
vt 0.292621 0.040025
vt 0.201110 0.855571
vt 0.189304 0.841997
vt 0.274846 0.489665
vt 0.187643 0.037190
vt 0.294530 0.492444
vt 0.178295 0.840090
vt 0.967699 0.494256
vt 0.967699 0.028169
vt 0.685826 0.028169
vt 0.685826 0.494256
vt 0.549720 0.047856
vt 0.686290 0.516330
vt 0.686290 0.982416
vt 0.979848 0.982416
vt 0.554166 0.047350
vt 0.979848 0.516330
vt 0.524614 0.045836
vt 0.388373 0.985474
vt 0.388373 0.031009
vt 0.364480 0.031009
vt 0.529136 0.046368
vt 0.364480 0.985474
vt 0.133570 0.035652
vt 0.121557 0.022078
vt 0.210403 0.022252
vt 0.144342 0.035654
vt 0.225884 0.494626
vt 0.142654 0.037561
vt 0.133568 0.842367
vt 0.135256 0.840460
vt 0.554166 0.378719
vt 0.250393 0.494077
vt 0.549720 0.378214
vt 0.144341 0.842368
vt 0.156353 0.855943
vt 0.234912 0.021703
vt 0.529136 0.394539
vt 0.524614 0.395071
vt 0.387295 0.985474
vt 0.387295 0.031009
vt 0.315084 0.031009
vt 0.536055 0.395071
vt 0.315084 0.985474
vt 0.327537 0.985474
vt 0.327537 0.031009
vt 0.328449 0.031009
vt 0.328449 0.985474
vt 0.347757 0.985474
vt 0.347757 0.031009
vt 0.348669 0.031009
vt 0.348669 0.985474
vt 0.545798 0.378214
vt 0.541353 0.378719
vt 0.531533 0.394539
vt 0.531533 0.046368
vt 0.541353 0.047350
vt 0.545798 0.047856
vt 0.536055 0.045836
vt 0.447965 0.038588
vt 0.447965 0.568722
vt 0.433232 0.568722
vt 0.433232 0.038588
vt 0.432319 0.038588
vt 0.432319 0.568722
vt 0.413012 0.568722
vt 0.413012 0.038588
vt 0.412100 0.038588
vt 0.412100 0.568722
vt 0.399647 0.568722
vt 0.399646 0.038588
vt 0.471857 0.038588
vt 0.471858 0.568722
vt 0.449043 0.568722
vt 0.449043 0.038588
vt 0.472936 0.038588
vt 0.472936 0.568722
vt 0.447965 0.038588
vt 0.447965 0.568722
vt 0.433232 0.568722
vt 0.433232 0.038588
vt 0.432319 0.038588
vt 0.432319 0.568722
vt 0.413012 0.568722
vt 0.413012 0.038588
vt 0.412100 0.038588
vt 0.412100 0.568722
vt 0.399647 0.568722
vt 0.399646 0.038588
vt 0.471857 0.038588
vt 0.471858 0.568722
vt 0.449043 0.568722
vt 0.449043 0.038588
vt 0.472936 0.038588
vt 0.472936 0.568722
vt 0.447965 0.038588
vt 0.447965 0.568722
vt 0.433232 0.568722
vt 0.433232 0.038588
vt 0.432319 0.038588
vt 0.432319 0.568722
vt 0.413012 0.568722
vt 0.413012 0.038588
vt 0.412100 0.038588
vt 0.412100 0.568722
vt 0.399647 0.568722
vt 0.399646 0.038588
vt 0.471857 0.038588
vt 0.471858 0.568722
vt 0.449043 0.568722
vt 0.449043 0.038588
vt 0.472936 0.038588
vt 0.472936 0.568722
vt 0.447965 0.038588
vt 0.447965 0.568722
vt 0.433232 0.568722
vt 0.433232 0.038588
vt 0.432319 0.038588
vt 0.432319 0.568722
vt 0.413012 0.568722
vt 0.413012 0.038588
vt 0.412100 0.038588
vt 0.412100 0.568722
vt 0.399647 0.568722
vt 0.399646 0.038588
vt 0.471857 0.038588
vt 0.471858 0.568722
vt 0.449043 0.568722
vt 0.449043 0.038588
vt 0.472936 0.038588
vt 0.472936 0.568722
vt 0.447965 0.038588
vt 0.447965 0.568722
vt 0.433232 0.568722
vt 0.433232 0.038588
vt 0.432319 0.038588
vt 0.432319 0.568722
vt 0.413012 0.568722
vt 0.413012 0.038588
vt 0.412100 0.038588
vt 0.412100 0.568722
vt 0.399647 0.568722
vt 0.399646 0.038588
vt 0.471857 0.038588
vt 0.471858 0.568722
vt 0.449043 0.568722
vt 0.449043 0.038588
vt 0.472936 0.038588
vt 0.472936 0.568722
vt 0.363402 0.031009
vt 0.363402 0.985474
vt 0.504181 0.043077
vt 0.510979 0.042555
vt 0.510979 0.572689
vt 0.504181 0.572167
vt 0.493339 0.572167
vt 0.486540 0.572689
vt 0.486540 0.042555
vt 0.493339 0.043077
vt 0.495880 0.572689
vt 0.495880 0.042555
vt 0.502106 0.043077
vt 0.502106 0.572167
vt 0.520029 0.572689
vt 0.513803 0.572167
vt 0.513803 0.043077
vt 0.520029 0.042555
vt 0.248486 0.033716
vt 0.121555 0.855942
vt 0.250394 0.035404
vt 0.248485 0.495765
vt 0.142652 0.840461
vt 0.223976 0.496315
vt 0.135258 0.037560
vt 0.223978 0.034265
vt 0.225886 0.035954
vt 0.210402 0.508328
vt 0.234910 0.507778
vt 0.156355 0.022079
vt 0.292622 0.494103
vt 0.279048 0.505908
vt 0.176635 0.841998
vt 0.164830 0.855572
vt 0.201108 0.021707
vt 0.272937 0.037246
vt 0.176634 0.035283
vt 0.259363 0.503130
vt 0.294529 0.041684
vt 0.187645 0.840089
vt 0.178293 0.037191
vt 0.274845 0.038906
vn 0.011548 0.999906 -0.007456
vn 0.000007 1.000000 0.000002
vn -0.000002 1.000000 0.000002
vn -0.011543 0.999906 -0.007457
vn 0.000007 1.000000 0.000006
vn 0.011548 0.999905 0.007464
vn -0.000002 1.000000 0.000005
vn -0.011543 0.999906 0.007464
vn 0.000000 0.130187 -0.991490
vn 0.000000 0.130187 -0.991490
vn 0.000000 0.130187 -0.991489
vn 0.000000 0.130187 -0.991490
vn 0.000000 0.923895 -0.382647
vn 0.000000 0.923895 -0.382647
vn -0.991490 0.130186 0.000000
vn -0.991490 0.130186 0.000000
vn -0.991490 0.130186 0.000000
vn -0.991490 0.130186 0.000000
vn -0.382668 0.923886 0.000000
vn -0.382668 0.923886 0.000000
vn 0.382611 0.923910 0.000000
vn 0.382611 0.923910 0.000000
vn 0.991502 0.130095 0.000000
vn 0.991502 0.130095 0.000000
vn 0.991502 0.130095 0.000000
vn 0.991502 0.130095 0.000000
vn 0.000000 0.923895 0.382647
vn 0.000000 0.923895 0.382647
vn 0.000000 0.130187 0.991490
vn 0.000000 0.130187 0.991490
vn 0.000000 0.130187 0.991490
vn 0.000000 0.130187 0.991489
vn -0.011542 -0.999906 -0.007459
vn 0.000000 -1.000000 0.000000
vn 0.000002 -1.000000 0.000000
vn 0.011544 -0.999906 -0.007459
vn 0.000000 -0.923895 -0.382647
vn 0.000000 -0.923895 -0.382647
vn 0.000000 -0.130185 -0.991490
vn 0.000000 -0.130185 -0.991490
vn 0.000000 -0.130185 -0.991490
vn 0.000000 -0.130185 -0.991490
vn 0.000000 -0.130185 0.991490
vn 0.000000 -0.130185 0.991490
vn 0.000000 -0.130185 0.991490
vn 0.000000 -0.130185 0.991490
vn -0.011542 -0.999906 0.007459
vn 0.000000 -0.923895 0.382647
vn 0.000000 -0.923895 0.382647
vn 0.011544 -0.999906 0.007458
vn 0.000002 -1.000000 -0.000001
vn 0.000000 -1.000000 -0.000001
vn -0.382683 -0.923880 0.000000
vn -0.382683 -0.923880 0.000000
vn -0.991490 -0.130184 0.000000
vn -0.991490 -0.130184 0.000000
vn -0.991490 -0.130184 0.000000
vn -0.991490 -0.130184 0.000000
vn 0.991503 -0.130081 0.000000
vn 0.991503 -0.130081 0.000000
vn 0.991503 -0.130081 0.000000
vn 0.991503 -0.130081 0.000000
vn 0.382611 -0.923910 0.000000
vn 0.382611 -0.923910 0.000000
vn 0.000000 1.000000 0.000000
vn 0.000000 1.000000 0.000000
vn 0.000000 1.000000 0.000000
vn 0.000000 1.000000 0.000000
vn 0.000000 -1.000000 0.000000
vn 0.000000 -1.000000 0.000000
vn 0.000000 -1.000000 0.000000
vn 0.000000 -1.000000 0.000000
vn 0.000000 0.000000 1.000000
vn 0.000000 0.000000 1.000000
vn 0.000000 0.000000 1.000000
vn 0.000000 0.000000 1.000000
vn 0.000000 1.000000 0.000000
vn 0.000000 1.000000 0.000000
vn 0.000000 1.000000 0.000000
vn 0.000000 1.000000 0.000000
vn 0.000000 0.000000 -1.000000
vn 0.000000 0.000000 -1.000000
vn 0.000000 0.000000 -1.000000
vn 0.000000 0.000000 -1.000000
vn 0.000000 -1.000000 0.000000
vn 0.000000 -1.000000 0.000000
vn 0.000000 -1.000000 0.000000
vn 0.000000 -1.000000 0.000000
vn 0.000000 -0.707130 0.707084
vn 0.000000 -0.707130 0.707084
vn 0.000000 -0.707130 0.707084
vn 0.000000 -0.707130 0.707084
vn 0.000000 0.707102 0.707112
vn 0.000000 0.707102 0.707112
vn 0.000000 0.707102 0.707112
vn 0.000000 0.707102 0.707112
vn 0.000000 0.707119 -0.707094
vn 0.000000 0.707119 -0.707094
vn 0.000000 0.707119 -0.707094
vn 0.000000 0.707119 -0.707094
vn 0.000000 -0.707148 -0.707066
vn 0.000000 -0.707148 -0.707066
vn 0.000000 -0.707148 -0.707066
vn 0.000000 -0.707148 -0.707066
vn 0.000000 0.000000 1.000000
vn 0.000000 0.000000 1.000000
vn 0.000000 0.000000 1.000000
vn 0.000000 0.000000 1.000000
vn 0.000000 1.000000 0.000000
vn 0.000000 1.000000 0.000000
vn 0.000000 1.000000 0.000000
vn 0.000000 1.000000 0.000000
vn 0.000000 0.000000 -1.000000
vn 0.000000 0.000000 -1.000000
vn 0.000000 0.000000 -1.000000
vn 0.000000 0.000000 -1.000000
vn 0.000000 -1.000000 0.000000
vn 0.000000 -1.000000 0.000000
vn 0.000000 -1.000000 0.000000
vn 0.000000 -1.000000 0.000000
vn 0.000000 -0.707130 0.707084
vn 0.000000 -0.707130 0.707084
vn 0.000000 -0.707130 0.707084
vn 0.000000 -0.707130 0.707084
vn 0.000000 0.707102 0.707112
vn 0.000000 0.707102 0.707112
vn 0.000000 0.707102 0.707112
vn 0.000000 0.707102 0.707112
vn 0.000000 0.707102 -0.707112
vn 0.000000 0.707102 -0.707112
vn 0.000000 0.707102 -0.707112
vn 0.000000 0.707102 -0.707112
vn 0.000000 -0.707130 -0.707084
vn 0.000000 -0.707130 -0.707084
vn 0.000000 -0.707130 -0.707084
vn 0.000000 -0.707130 -0.707084
vn 0.000000 0.000000 1.000000
vn 0.000000 0.000000 1.000000
vn 0.000000 0.000000 1.000000
vn 0.000000 0.000000 1.000000
vn 0.000000 1.000000 0.000000
vn 0.000000 1.000000 0.000000
vn 0.000000 1.000000 0.000000
vn 0.000000 1.000000 0.000000
vn 0.000000 0.000000 -1.000000
vn 0.000000 0.000000 -1.000000
vn 0.000000 0.000000 -1.000000
vn 0.000000 0.000000 -1.000000
vn 0.000000 -1.000000 0.000000
vn 0.000000 -1.000000 0.000000
vn 0.000000 -1.000000 0.000000
vn 0.000000 -1.000000 0.000000
vn 0.000000 -0.707131 0.707083
vn 0.000000 -0.707131 0.707083
vn 0.000000 -0.707131 0.707083
vn 0.000000 -0.707131 0.707083
vn 0.000000 0.707102 0.707111
vn 0.000000 0.707102 0.707111
vn 0.000000 0.707102 0.707111
vn 0.000000 0.707102 0.707111
vn 0.000000 0.707105 -0.707109
vn 0.000000 0.707105 -0.707109
vn 0.000000 0.707105 -0.707109
vn 0.000000 0.707105 -0.707109
vn 0.000000 -0.707133 -0.707080
vn 0.000000 -0.707133 -0.707080
vn 0.000000 -0.707133 -0.707080
vn 0.000000 -0.707133 -0.707080
vn 0.000000 0.000000 1.000000
vn 0.000000 0.000000 1.000000
vn 0.000000 0.000000 1.000000
vn 0.000000 0.000000 1.000000
vn 0.000000 1.000000 0.000000
vn 0.000000 1.000000 0.000000
vn 0.000000 1.000000 0.000000
vn 0.000000 1.000000 0.000000
vn 0.000000 0.000000 -1.000000
vn 0.000000 0.000000 -1.000000
vn 0.000000 0.000000 -1.000000
vn 0.000000 0.000000 -1.000000
vn 0.000000 -1.000000 0.000000
vn 0.000000 -1.000000 0.000000
vn 0.000000 -1.000000 0.000000
vn 0.000000 -1.000000 0.000000
vn 0.000000 -0.707130 0.707084
vn 0.000000 -0.707130 0.707084
vn 0.000000 -0.707130 0.707084
vn 0.000000 -0.707130 0.707084
vn 0.000000 0.707102 0.707112
vn 0.000000 0.707102 0.707112
vn 0.000000 0.707102 0.707112
vn 0.000000 0.707102 0.707112
vn 0.000000 0.707111 -0.707103
vn 0.000000 0.707111 -0.707103
vn 0.000000 0.707111 -0.707103
vn 0.000000 0.707111 -0.707103
vn 0.000000 -0.707139 -0.707075
vn 0.000000 -0.707139 -0.707075
vn 0.000000 -0.707139 -0.707075
vn 0.000000 -0.707139 -0.707075
vn 0.000000 0.000000 1.000000
vn 0.000000 0.000000 1.000000
vn 0.000000 0.000000 1.000000
vn 0.000000 0.000000 1.000000
vn 0.000000 1.000000 0.000000
vn 0.000000 1.000000 0.000000
vn 0.000000 1.000000 0.000000
vn 0.000000 1.000000 0.000000
vn 0.000000 0.000000 -1.000000
vn 0.000000 0.000000 -1.000000
vn 0.000000 0.000000 -1.000000
vn 0.000000 0.000000 -1.000000
vn 0.000000 -1.000000 0.000000
vn 0.000000 -1.000000 0.000000
vn 0.000000 -1.000000 0.000000
vn 0.000000 -1.000000 0.000000
vn 0.000000 -0.707139 0.707075
vn 0.000000 -0.707139 0.707075
vn 0.000000 -0.707139 0.707075
vn 0.000000 -0.707139 0.707075
vn 0.000000 0.707111 0.707103
vn 0.000000 0.707111 0.707103
vn 0.000000 0.707111 0.707103
vn 0.000000 0.707111 0.707103
vn 0.000000 0.707111 -0.707103
vn 0.000000 0.707111 -0.707103
vn 0.000000 0.707111 -0.707103
vn 0.000000 0.707111 -0.707103
vn 0.000000 -0.707139 -0.707075
vn 0.000000 -0.707139 -0.707075
vn 0.000000 -0.707139 -0.707075
vn 0.000000 -0.707139 -0.707075
vn -1.000000 0.000000 0.000000
vn -1.000000 0.000000 0.000000
vn -1.000000 0.000000 0.000000
vn -1.000000 0.000000 0.000000
vn 0.000000 1.000000 0.000000
vn 0.000000 1.000000 0.000000
vn 0.000000 1.000000 0.000000
vn 0.000000 1.000000 0.000000
vn 1.000000 0.000000 0.000000
vn 1.000000 0.000000 0.000000
vn 1.000000 0.000000 0.000000
vn 1.000000 0.000000 0.000000
vn 0.000000 -1.000000 0.000000
vn 0.000000 -1.000000 0.000000
vn 0.000000 -1.000000 0.000000
vn 0.000000 -1.000000 0.000000
vn -0.693334 -0.720617 0.000000
vn -0.693334 -0.720617 0.000000
vn -0.693334 -0.720617 0.000000
vn -0.693334 -0.720617 0.000000
vn -0.693334 0.720617 0.000000
vn -0.693334 0.720617 0.000000
vn -0.693334 0.720617 0.000000
vn -0.693334 0.720617 0.000000
vn 0.693277 0.720671 0.000000
vn 0.693277 0.720671 0.000000
vn 0.693277 0.720671 0.000000
vn 0.693277 0.720671 0.000000
vn 0.693277 -0.720671 0.000000
vn 0.693277 -0.720671 0.000000
vn 0.693277 -0.720671 0.000000
vn 0.693277 -0.720671 0.000000
s 1
g FloorMesh
usemtl lambert5SG
f 7/1/1 2/192/2 1/3/3 10/190/4
f 3/188/5 2/2/2 7/191/1 13/187/6
f 4/186/7 3/5/5 13/6/6 16/185/8
f 16/8/8 10/4/4 1/189/3 4/7/7
s off
f 5/17/9 6/21/10 9/37/11 8/39/12
s 1
f 6/9/13 7/1/1 10/190/4 9/196/14
s off
f 8/157/15 9/158/16 15/159/17 14/160/18
s 1
f 15/194/19 9/10/20 10/4/4 16/8/8
f 7/191/1 6/195/21 12/12/22 13/187/6
s off
f 12/165/23 6/166/24 5/167/25 11/168/26
s 1
f 13/6/6 12/193/27 15/11/28 16/185/8
s off
f 12/23/29 11/27/30 14/43/31 15/44/32
s 2
f 26/178/33 17/182/34 18/31/35 23/180/36
f 25/33/37 26/178/33 23/180/36 22/181/38
s off
f 24/58/39 25/59/40 22/62/41 21/63/42
f 31/48/43 30/60/44 27/61/45 28/64/46
s 2
f 32/173/47 31/175/48 28/38/49 29/176/50
f 19/183/51 20/42/52 32/173/47 29/176/50
f 32/35/47 20/174/52 17/30/34 26/29/33
f 31/36/53 32/35/47 26/29/33 25/179/54
s off
f 30/161/55 31/162/56 25/163/57 24/164/58
f 28/169/59 27/170/60 21/171/61 22/172/62
s 2
f 29/40/50 28/177/63 22/34/64 23/32/36
f 18/184/35 19/41/51 29/40/50 23/32/36
s off
f 8/22/65 14/20/66 11/19/67 5/18/68
f 21/16/69 27/15/70 30/14/71 24/13/72
f 34/65/73 35/66/74 40/67/75 37/68/76
f 38/69/77 39/70/78 44/71/79 41/72/80
f 42/73/81 43/74/82 48/75/83 45/76/84
f 46/77/85 47/78/86 36/79/87 33/80/88
f 34/65/89 33/80/90 36/79/91 35/66/92
f 38/69/93 37/68/94 40/67/95 39/70/96
f 42/73/97 41/72/98 44/71/99 43/74/100
f 46/77/101 45/81/102 48/82/103 47/78/104
f 50/83/105 51/84/106 56/85/107 53/86/108
f 54/87/109 55/88/110 60/89/111 57/90/112
f 58/91/113 59/92/114 64/93/115 61/94/116
f 62/95/117 63/96/118 52/97/119 49/98/120
f 50/83/121 49/98/122 52/97/123 51/84/124
f 54/87/125 53/86/126 56/85/127 55/88/128
f 58/91/129 57/90/130 60/89/131 59/92/132
f 62/95/133 61/99/134 64/100/135 63/96/136
f 66/101/137 67/102/138 72/103/139 69/104/140
f 70/105/141 71/106/142 76/107/143 73/108/144
f 74/109/145 75/110/146 80/111/147 77/112/148
f 78/113/149 79/114/150 68/115/151 65/116/152
f 66/101/153 65/116/154 68/115/155 67/102/156
f 70/105/157 69/104/158 72/103/159 71/106/160
f 74/109/161 73/108/162 76/107/163 75/110/164
f 78/113/165 77/117/166 80/118/167 79/114/168
f 82/119/169 83/120/170 88/121/171 85/122/172
f 86/123/173 87/124/174 92/125/175 89/126/176
f 90/127/177 91/128/178 96/129/179 93/130/180
f 94/131/181 95/132/182 84/133/183 81/134/184
f 82/119/185 81/134/186 84/133/187 83/120/188
f 86/123/189 85/122/190 88/121/191 87/124/192
f 90/127/193 89/126/194 92/125/195 91/128/196
f 94/131/197 93/135/198 96/136/199 95/132/200
f 98/137/201 99/138/202 104/139/203 101/140/204
f 102/141/205 103/142/206 108/143/207 105/144/208
f 106/145/209 107/146/210 112/147/211 109/148/212
f 110/149/213 111/150/214 100/151/215 97/152/216
f 98/137/217 97/152/218 100/151/219 99/138/220
f 102/141/221 101/140/222 104/139/223 103/142/224
f 106/145/225 105/144/226 108/143/227 107/146/228
f 110/149/229 109/153/230 112/154/231 111/150/232
f 114/155/233 115/156/234 120/57/235 117/56/236
f 118/55/237 119/54/238 124/53/239 121/52/240
f 122/51/241 123/50/242 128/49/243 125/47/244
f 126/46/245 127/45/246 116/28/247 113/26/248
f 114/155/249 113/26/250 116/28/251 115/156/252
f 118/55/253 117/56/254 120/57/255 119/54/256
f 122/51/257 121/52/258 124/53/259 123/50/260
f 126/46/261 125/25/262 128/24/263 127/45/264
