# This file uses centimeters as units for non-parametric coordinates.

mtllib InsideRoomBottom.mtl
g default
v -31.861502 3.696675 -3.958181
v -31.870186 3.696675 -3.948648
v -31.870186 0.485106 -3.948648
v -31.861502 0.485106 -3.958181
v -31.870186 3.696675 -3.872372
v -31.861502 3.696675 -3.862839
v -31.861502 0.485106 -3.862839
v -31.870186 0.485106 -3.872372
v -31.677715 3.696675 -3.862839
v -31.669031 3.696675 -3.872372
v -31.669031 0.485106 -3.872372
v -31.677715 0.485106 -3.862839
v -31.669031 3.696675 -3.948648
v -31.677715 3.696675 -3.958181
v -31.677715 0.485106 -3.958181
v -31.669031 0.485106 -3.948648
v -31.861502 3.696675 3.853199
v -31.870186 3.696675 3.862732
v -31.870186 0.485106 3.862732
v -31.861502 0.485106 3.853199
v -31.870186 3.696675 3.939008
v -31.861502 3.696675 3.948541
v -31.861502 0.485106 3.948541
v -31.870186 0.485106 3.939008
v -31.677715 3.696675 3.948541
v -31.669031 3.696675 3.939008
v -31.669031 0.485106 3.939008
v -31.677715 0.485106 3.948541
v -31.669031 3.696675 3.862732
v -31.677715 3.696675 3.853199
v -31.677715 0.485106 3.853199
v -31.669031 0.485106 3.862732
v -34.346825 3.736391 3.950195
v -29.164795 3.736391 3.950195
v -29.164795 3.736391 -3.952015
v -34.346825 3.736391 -3.952015
v -34.311062 0.541771 3.906539
v -29.200558 0.541771 3.906539
v -34.311062 0.541771 -3.908360
v -29.200558 0.541771 -3.908360
v -34.346825 0.686603 3.950195
v -34.346825 0.686603 -3.952015
v -29.164795 0.686603 -3.952015
v -29.164795 0.686603 3.950195
v -34.314671 0.686603 -3.913357
v -34.314671 0.686603 3.911536
v -29.196949 0.686603 -3.913357
v -29.196949 0.686603 3.911536
v -34.346825 1.601036 -3.952016
v -34.346825 1.601036 3.950195
v -29.164795 1.601036 3.950195
v -29.164795 1.601036 -3.952016
v -34.346825 1.485005 -3.952016
v -34.346825 1.485005 3.950195
v -29.164795 1.485005 3.950195
v -29.164795 1.485005 -3.952016
v -34.328842 1.485005 -3.934035
v -34.328842 1.485005 3.932214
v -34.328842 1.601036 -3.934035
v -34.328842 1.601036 3.932214
v -29.182777 1.601036 3.932214
v -29.182777 1.485005 3.932214
v -29.182777 1.601036 -3.934035
v -29.182777 1.485005 -3.934035
vt 0.938979 0.018389
vt 0.938979 0.287003
vt 0.928133 0.287003
vt 0.928133 0.018389
vt 0.927461 0.018389
vt 0.927461 0.287003
vt 0.913247 0.287003
vt 0.913247 0.018389
vt 0.912575 0.018389
vt 0.912575 0.287003
vt 0.903408 0.287003
vt 0.903407 0.018389
vt 0.956569 0.018389
vt 0.956569 0.287003
vt 0.939773 0.287003
vt 0.939773 0.018389
vt 0.957363 0.018389
vt 0.957363 0.287003
vt 0.874538 0.018389
vt 0.874538 0.287003
vt 0.863692 0.287003
vt 0.863692 0.018389
vt 0.863020 0.018389
vt 0.863020 0.287003
vt 0.848807 0.287003
vt 0.848806 0.018389
vt 0.848135 0.018389
vt 0.848135 0.287003
vt 0.838967 0.287003
vt 0.838967 0.018389
vt 0.892128 0.018389
vt 0.892128 0.287003
vt 0.875332 0.287003
vt 0.875332 0.018389
vt 0.892922 0.018389
vt 0.892922 0.287003
vt 0.764301 0.020788
vt 0.785716 0.402178
vt 0.708698 0.015020
vt 0.708698 0.568950
vt 0.785716 0.014047
vt 0.789216 0.011608
vt 0.689858 0.017730
vt 0.767801 0.411358
vt 0.397462 0.619356
vt 0.968892 0.619356
vt 0.968892 0.949798
vt 0.397462 0.949798
vt 0.694949 0.565889
vt 0.694950 0.018080
vt 0.793003 0.018349
vt 0.733283 0.015020
vt 0.689858 0.566240
vt 0.812235 0.403253
vt 0.764301 0.408919
vt 0.734339 0.567689
vt 0.823878 0.404617
vt 0.025046 0.956701
vt 0.351565 0.659538
vt 0.744895 0.568950
vt 0.351565 0.720719
vt 0.803530 0.019713
vt 0.025046 0.896551
vt 0.743839 0.016281
vt 0.805159 0.411358
vt 0.727759 0.016281
vt 0.794631 0.409994
vt 0.715191 0.015020
vt 0.823878 0.011608
vt 0.822250 0.012972
vt 0.810607 0.011608
vt 0.716246 0.567689
vt 0.459376 0.274476
vt 0.021089 0.274476
vt 0.021089 0.213219
vt 0.459376 0.213220
vt 0.021089 0.204317
vt 0.021089 0.040485
vt 0.459376 0.040485
vt 0.459376 0.204317
vt 0.468327 0.333812
vt 0.030039 0.333812
vt 0.030039 0.284072
vt 0.468327 0.284073
vt 0.468327 0.474071
vt 0.030039 0.474071
vt 0.030039 0.341041
vt 0.468327 0.341041
vt 0.025908 0.720719
vt 0.025908 0.659538
vt 0.025908 0.487017
vt 0.351565 0.487017
vt 0.351565 0.650647
vt 0.025908 0.650647
vt 0.361782 0.896551
vt 0.361782 0.956701
vt 0.025046 0.726936
vt 0.361782 0.726936
vt 0.361782 0.887809
vt 0.025046 0.887809
vt 0.773207 0.014320
vt 0.773207 0.401905
vt 0.812235 0.012972
vt 0.822250 0.403253
vt 0.675483 0.565889
vt 0.675483 0.018080
vt 0.727759 0.567689
vt 0.716247 0.016281
vt 0.753186 0.408646
vt 0.753186 0.021061
vt 0.803530 0.409994
vt 0.794631 0.019713
vt 0.706811 0.017730
vt 0.706810 0.566240
vt 0.734339 0.016281
vt 0.743839 0.567689
vt 0.789216 0.404617
vt 0.715191 0.568950
vt 0.728815 0.568949
vt 0.793003 0.411358
vt 0.728815 0.015020
vt 0.805159 0.018349
vt 0.744895 0.015020
vt 0.733283 0.568950
vt 0.810607 0.404617
vt 0.691746 0.015020
vt 0.691746 0.568950
vt 0.767801 0.018349
vn -1.000000 0.000000 0.000000
vn -1.000000 0.000000 0.000000
vn -1.000000 0.000000 0.000000
vn -1.000000 0.000000 0.000000
vn 0.000000 0.000000 1.000000
vn 0.000000 0.000000 1.000000
vn 0.000000 0.000000 1.000000
vn 0.000000 0.000000 1.000000
vn 1.000000 0.000000 0.000000
vn 1.000000 0.000000 0.000000
vn 1.000000 0.000000 0.000000
vn 1.000000 0.000000 0.000000
vn 0.000000 0.000000 -1.000000
vn 0.000000 0.000000 -1.000000
vn 0.000000 0.000000 -1.000000
vn 0.000000 0.000000 -1.000000
vn -0.739263 0.000000 -0.673417
vn -0.739263 0.000000 -0.673417
vn -0.739263 0.000000 -0.673417
vn -0.739263 0.000000 -0.673417
vn -0.739263 0.000000 0.673417
vn -0.739263 0.000000 0.673417
vn -0.739263 0.000000 0.673417
vn -0.739263 0.000000 0.673417
vn 0.739263 0.000000 0.673417
vn 0.739263 0.000000 0.673417
vn 0.739263 0.000000 0.673417
vn 0.739263 0.000000 0.673417
vn 0.739263 0.000000 -0.673417
vn 0.739263 0.000000 -0.673417
vn 0.739263 0.000000 -0.673417
vn 0.739263 0.000000 -0.673417
vn -1.000000 0.000000 0.000000
vn -1.000000 0.000000 0.000000
vn -1.000000 0.000000 0.000000
vn -1.000000 0.000000 0.000000
vn 0.000000 0.000000 1.000000
vn 0.000000 0.000000 1.000000
vn 0.000000 0.000000 1.000000
vn 0.000000 0.000000 1.000000
vn 1.000000 0.000000 0.000000
vn 1.000000 0.000000 0.000000
vn 1.000000 0.000000 0.000000
vn 1.000000 0.000000 0.000000
vn 0.000000 0.000000 -1.000000
vn 0.000000 0.000000 -1.000000
vn 0.000000 0.000000 -1.000000
vn 0.000000 0.000000 -1.000000
vn -0.739263 0.000000 -0.673417
vn -0.739263 0.000000 -0.673417
vn -0.739263 0.000000 -0.673417
vn -0.739263 0.000000 -0.673417
vn -0.739273 0.000000 0.673406
vn -0.739273 0.000000 0.673406
vn -0.739273 0.000000 0.673406
vn -0.739273 0.000000 0.673406
vn 0.739273 0.000000 0.673406
vn 0.739273 0.000000 0.673406
vn 0.739273 0.000000 0.673406
vn 0.739273 0.000000 0.673406
vn 0.739263 0.000000 -0.673417
vn 0.739263 0.000000 -0.673417
vn 0.739263 0.000000 -0.673417
vn 0.739263 0.000000 -0.673417
vn 0.000000 0.000000 -1.000000
vn 0.000000 0.000000 -1.000000
vn 0.000000 0.000000 -1.000000
vn 0.000000 0.000000 -1.000000
vn 0.000000 0.000000 1.000000
vn 0.000000 0.000000 1.000000
vn 0.000000 0.000000 1.000000
vn 0.000000 0.000000 1.000000
vn -1.000000 0.000000 0.000000
vn -1.000000 0.000000 0.000000
vn -1.000000 0.000000 0.000000
vn -1.000000 0.000000 0.000000
vn 1.000000 0.000000 0.000000
vn 1.000000 0.000000 0.000000
vn 1.000000 0.000000 0.000000
vn 1.000000 0.000000 0.000000
vn 0.000000 1.000000 0.000000
vn 0.000000 1.000000 0.000000
vn 0.000000 1.000000 0.000000
vn 0.000000 1.000000 0.000000
vn 0.999689 0.024939 0.000000
vn 0.999689 0.024939 0.000000
vn 0.999689 0.024939 0.000000
vn 0.999689 0.024939 0.000000
vn 0.000000 0.034482 0.999405
vn 0.000000 0.034482 0.999405
vn 0.000000 0.034482 0.999405
vn 0.000000 0.034482 0.999405
vn -0.999690 0.024903 0.000000
vn -0.999690 0.024903 0.000000
vn -0.999690 0.024903 0.000000
vn -0.999690 0.024903 0.000000
vn 0.000000 0.034480 -0.999405
vn 0.000000 0.034480 -0.999405
vn 0.000000 0.034480 -0.999405
vn 0.000000 0.034480 -0.999405
vn 0.000000 1.000000 0.000000
vn 0.000000 1.000000 0.000000
vn 0.000000 1.000000 0.000000
vn 0.000000 1.000000 0.000000
vn 0.000000 1.000000 0.000000
vn 0.000000 1.000000 0.000000
vn 0.000000 1.000000 0.000000
vn 0.000000 1.000000 0.000000
vn 1.000000 0.000000 0.000000
vn 1.000000 0.000000 0.000000
vn 1.000000 0.000000 0.000000
vn 1.000000 0.000000 0.000000
vn 0.000000 0.000000 -1.000000
vn 0.000000 0.000000 -1.000000
vn 0.000000 0.000000 -1.000000
vn 0.000000 0.000000 -1.000000
vn -1.000000 0.000000 0.000000
vn -1.000000 0.000000 0.000000
vn -1.000000 0.000000 0.000000
vn -1.000000 0.000000 0.000000
vn 0.000000 -0.000000 1.000000
vn 0.000000 -0.000000 1.000000
vn 0.000000 -0.000000 1.000000
vn 0.000000 -0.000000 1.000000
vn 1.000000 0.000000 0.000000
vn 1.000000 0.000000 0.000000
vn 1.000000 0.000000 0.000000
vn 1.000000 0.000000 0.000000
vn 0.000000 0.000000 -1.000000
vn 0.000000 0.000000 -1.000000
vn 0.000000 0.000000 -1.000000
vn 0.000000 0.000000 -1.000000
vn -1.000000 0.000000 0.000000
vn -1.000000 0.000000 0.000000
vn -1.000000 0.000000 0.000000
vn -1.000000 0.000000 0.000000
vn 0.000000 0.000000 1.000000
vn 0.000000 0.000000 1.000000
vn 0.000000 0.000000 1.000000
vn 0.000000 0.000000 1.000000
vn 0.000000 -1.000000 0.000002
vn 0.000000 -1.000000 -0.000002
vn 0.000000 -1.000000 -0.000002
vn 0.000000 -1.000000 0.000002
vn 0.000000 1.000000 0.000004
vn 0.000000 1.000000 -0.000004
vn 0.000000 1.000000 -0.000004
vn 0.000000 1.000000 0.000004
vn 0.000000 1.000000 -0.000004
vn 0.000000 1.000000 -0.000004
vn 0.000000 -1.000000 0.000002
vn 0.000000 -1.000000 0.000002
vn 0.000000 1.000000 0.000004
vn 0.000000 1.000000 0.000004
vn 0.000000 -1.000000 -0.000002
vn 0.000000 -1.000000 -0.000002
s off
g InsideRoomBottomMesh
usemtl lambert2SG
f 2/1/1 3/2/2 8/3/3 5/4/4
f 6/5/5 7/6/6 12/7/7 9/8/8
f 10/9/9 11/10/10 16/11/11 13/12/12
f 14/13/13 15/14/14 4/15/15 1/16/16
f 2/1/17 1/16/18 4/15/19 3/2/20
f 6/5/21 5/4/22 8/3/23 7/6/24
f 10/9/25 9/8/26 12/7/27 11/10/28
f 14/13/29 13/17/30 16/18/31 15/14/32
f 18/19/33 19/20/34 24/21/35 21/22/36
f 22/23/37 23/24/38 28/25/39 25/26/40
f 26/27/41 27/28/42 32/29/43 29/30/44
f 30/31/45 31/32/46 20/33/47 17/34/48
f 18/19/49 17/34/50 20/33/51 19/20/52
f 22/23/53 21/22/54 24/21/55 23/24/56
f 26/27/57 25/26/58 28/25/59 27/28/60
f 30/31/61 29/35/62 32/36/63 31/32/64
f 55/59/65 44/61/66 41/89/67 54/90/68
f 43/58/69 56/63/70 53/95/71 42/96/72
f 55/81/73 56/82/74 43/83/75 44/84/76
f 41/73/77 42/74/78 53/75/79 54/76/80
f 38/45/81 40/46/82 39/47/83 37/48/84
f 37/49/85 39/50/86 45/113/87 46/114/88
f 40/101/89 47/41/90 45/38/91 39/102/92
f 47/53/93 40/105/94 38/106/95 48/43/96
f 48/55/97 38/109/98 37/110/99 46/37/100
s 1
f 46/114/101 45/113/102 42/39/103 41/40/104
f 47/41/105 43/42/106 42/117/103 45/38/102
f 47/53/105 48/43/107 44/126/108 43/127/106
f 44/44/108 48/55/107 46/37/101 41/128/104
s off
f 49/77/109 36/78/110 33/79/111 50/80/112
f 33/91/113 34/92/114 51/93/115 50/94/116
f 34/85/117 35/86/118 52/87/119 51/88/120
f 35/97/121 36/98/122 49/99/123 52/100/124
f 58/56/125 57/115/126 59/64/127 60/116/128
f 61/111/129 62/67/130 58/112/131 60/62/132
f 61/66/133 63/107/134 64/72/135 62/108/136
f 64/103/137 63/70/138 59/104/139 57/54/140
s 2
f 54/124/141 53/52/142 57/115/143 58/56/144
s 3
f 49/123/145 50/60/146 60/116/147 59/64/148
f 51/65/149 61/111/150 60/62/147 50/122/146
s 2
f 62/67/151 55/120/152 54/51/141 58/112/144
s 3
f 51/121/149 52/119/153 63/107/154 61/66/150
s 2
f 56/118/155 55/68/152 62/108/151 64/72/156
f 56/71/155 64/103/156 57/54/143 53/125/142
s 3
f 63/70/154 52/69/153 49/57/145 59/104/148
